PathFileType	4	(X/Y/Z)	E1.trc
DataRate	CameraRate	NumFrames	NumMarkers	Units	OrigDataRate	OrigDataStartFrame	OrigNumFrames
60.0	60.0	9	23	m	60.0	822	2190
Frame#	Time	NOSE	LEFT_EAR	RIGHT_EAR	LEFT_SHOULDER	RIGHT_SHOULDER	LEFT_ELBOW	RIGHT_ELBOW	LEFT_WRIST	RIGHT_WRIST	LEFT_INDEX	RIGHT_INDEX	LEFT_THUMB	RIGHT_THUMB	LEFT_HIP	RIGHT_HIP	LEFT_KNEE	RIGHT_KNEE	LEFT_ANKLE	RIGHT_ANKLE	LEFT_HEEL	RIGHT_HEEL	LEFT_FOOT_INDEX	RIGHT_FOOT_INDEX
		X1	Y1	Z1	X2	Y2	Z2	X3	Y3	Z3	X4	Y4	Z4	X5	Y5	Z5	X6	Y6	Z6	X7	Y7	Z7	X8	Y8	Z8	X9	Y9	Z9	X10	Y10	Z10	X11	Y11	Z11	X12	Y12	Z12	X13	Y13	Z13	X14	Y14	Z14	X15	Y15	Z15	X16	Y16	Z16	X17	Y17	Z17	X18	Y18	Z18	X19	Y19	Z19	X20	Y20	Z20	X21	Y21	Z21	X22	Y22	Z22	X23	Y23	Z23
822	13.683333	0.194925	1.676336	0.414302	0.232762	1.697632	0.329764	0.124442	1.699959	0.360528	0.334190	1.482911	0.260506	-0.018217	1.493536	0.335411	0.480702	1.208122	0.370947	-0.057547	1.204591	0.467133	0.319894	1.336637	0.489238	0.166543	1.355079	0.538954	0.286278	1.403459	0.523886	0.208043	1.422919	0.535539	0.285267	1.398341	0.509277	0.204902	1.411178	0.527609	0.298896	0.915584	0.327979	0.071048	0.915923	0.343859	0.422560	0.514942	0.390078	-0.003106	0.501047	0.354136	0.491645	0.090670	0.346765	-0.029914	0.083933	0.296970	0.486924	0.023665	0.318256	-0.010990	0.014916	0.276392	0.570484	0.044730	0.500765	-0.069259	0.015550	0.444362
823	13.700000	0.193593	1.676806	0.409325	0.231594	1.697603	0.324411	0.122607	1.699881	0.354283	0.331916	1.482644	0.256718	-0.018761	1.493111	0.333331	0.479856	1.207654	0.371299	-0.058939	1.205050	0.467781	0.316920	1.336766	0.485301	0.165521	1.356990	0.537437	0.284658	1.409881	0.519149	0.206174	1.423997	0.533660	0.286430	1.398858	0.510258	0.202677	1.412308	0.524484	0.298135	0.915100	0.327834	0.070699	0.915458	0.345994	0.422553	0.515540	0.387455	-0.002736	0.500280	0.353264	0.489695	0.090015	0.341361	-0.029908	0.083784	0.297112	0.484831	0.023452	0.313151	-0.011102	0.014847	0.275934	0.567857	0.040780	0.494676	-0.068169	0.016432	0.446238
824	13.716667	0.194746	1.677199	0.405902	0.230789	1.697782	0.320480	0.122799	1.700011	0.351485	0.329704	1.482822	0.252786	-0.019327	1.492977	0.329588	0.475728	1.207111	0.371212	-0.060436	1.205369	0.468294	0.332781	1.338301	0.510460	0.165576	1.358162	0.533610	0.286607	1.410748	0.521005	0.206310	1.424757	0.528989	0.287249	1.398925	0.509448	0.202566	1.413377	0.520008	0.297249	0.915206	0.328097	0.069959	0.915111	0.346458	0.423049	0.515588	0.385699	-0.002563	0.499686	0.353053	0.488881	0.087534	0.335516	-0.028962	0.085571	0.298663	0.482603	0.021993	0.306075	-0.010984	0.015093	0.276393	0.565108	0.038490	0.490489	-0.066562	0.016225	0.447127
825	13.733333	0.192652	1.677703	0.400735	0.229410	1.697833	0.314759	0.121132	1.700078	0.346312	0.330052	1.482311	0.250325	-0.019929	1.492725	0.327991	0.475598	1.206322	0.370715	-0.061115	1.206629	0.468243	0.334904	1.340335	0.514114	0.167589	1.361018	0.529857	0.287075	1.412012	0.518523	0.207881	1.427085	0.526098	0.287865	1.399795	0.509007	0.203439	1.415331	0.516424	0.297128	0.914843	0.328222	0.069965	0.914558	0.349672	0.423160	0.513963	0.372987	-0.002282	0.499121	0.352622	0.487896	0.087212	0.331827	-0.028731	0.085511	0.299146	0.481306	0.022617	0.302361	-0.010691	0.014784	0.276759	0.562215	0.036608	0.486179	-0.066331	0.016805	0.449577
826	13.750000	0.192040	1.678120	0.396765	0.228410	1.697958	0.310684	0.120277	1.700276	0.341983	0.330642	1.482310	0.248325	-0.020715	1.492429	0.325018	0.474250	1.205346	0.373355	-0.060517	1.207339	0.467219	0.337317	1.340676	0.517993	0.166246	1.361562	0.527877	0.307777	1.412394	0.546133	0.207013	1.427644	0.524721	0.289491	1.399871	0.509772	0.202345	1.415968	0.514596	0.296564	0.914572	0.328691	0.069956	0.914338	0.350550	0.423824	0.512659	0.369962	-0.002016	0.498613	0.352164	0.487021	0.087919	0.327668	-0.028261	0.086031	0.299661	0.480351	0.024200	0.297311	-0.010113	0.014021	0.276356	0.560420	0.035353	0.483768	-0.066224	0.016747	0.450936
827	13.766667	0.192821	1.678469	0.393917	0.228016	1.698171	0.305853	0.119767	1.700280	0.337586	0.331099	1.482433	0.244412	-0.020081	1.491906	0.320962	0.474892	1.204403	0.376966	-0.060017	1.208575	0.465739	0.338309	1.341385	0.516334	0.166162	1.362880	0.526604	0.309376	1.413518	0.544194	0.206649	1.429146	0.522969	0.290276	1.400743	0.504681	0.201545	1.417062	0.512757	0.297497	0.914073	0.328152	0.070768	0.913661	0.350798	0.424293	0.510569	0.366700	-0.000349	0.499021	0.350012	0.487610	0.086502	0.323331	-0.027369	0.086995	0.299430	0.480608	0.023161	0.292382	-0.009829	0.014392	0.276341	0.560495	0.032668	0.478886	-0.065338	0.018317	0.452887
828	13.783333	0.191691	1.678738	0.388750	0.227387	1.698159	0.301404	0.119696	1.700360	0.333070	0.331807	1.482019	0.244359	-0.020548	1.491856	0.318524	0.475115	1.204156	0.378024	-0.058467	1.208739	0.463949	0.339232	1.342764	0.518116	0.165588	1.364156	0.521998	0.314701	1.413753	0.550832	0.206575	1.430051	0.517727	0.292143	1.401153	0.505218	0.201044	1.417958	0.507191	0.298185	0.913621	0.327772	0.071488	0.913521	0.351513	0.423067	0.509338	0.363441	0.000057	0.498935	0.348663	0.488145	0.085908	0.321550	-0.027313	0.087011	0.298852	0.481572	0.022713	0.290885	-0.009373	0.015480	0.276444	0.560231	0.032415	0.477682	-0.067194	0.018023	0.451003
829	13.800000	0.191729	1.679373	0.386455	0.228015	1.698519	0.299482	0.120165	1.700504	0.329621	0.333043	1.482307	0.244229	-0.020360	1.491586	0.316942	0.475444	1.203908	0.380349	-0.056642	1.209366	0.462398	0.339407	1.343382	0.516855	0.164802	1.365286	0.521682	0.315200	1.414267	0.549383	0.205343	1.430897	0.516676	0.294109	1.401801	0.503672	0.200053	1.419111	0.506082	0.299056	0.913412	0.327616	0.072774	0.913438	0.352112	0.421878	0.507632	0.358917	0.001139	0.498758	0.346389	0.488432	0.085637	0.319940	-0.027646	0.086412	0.298160	0.482280	0.022559	0.289606	-0.009872	0.015668	0.276003	0.561441	0.031543	0.476139	-0.066594	0.019252	0.452562
830	13.816667	0.192913	1.679435	0.385556	0.228900	1.698539	0.296745	0.121236	1.700352	0.327645	0.335058	1.481736	0.242769	-0.018794	1.491073	0.316507	0.477210	1.203875	0.382623	-0.055538	1.209877	0.462161	0.341263	1.344031	0.518344	0.163383	1.366268	0.521521	0.316199	1.414493	0.549767	0.204133	1.431896	0.516919	0.295703	1.401999	0.503286	0.198336	1.420074	0.505468	0.300820	0.912822	0.326817	0.074492	0.913055	0.352240	0.420829	0.505801	0.356260	0.001803	0.498759	0.345342	0.489480	0.084433	0.319332	-0.027783	0.086100	0.297845	0.483575	0.021620	0.290051	-0.010127	0.015475	0.275316	0.558597	0.029415	0.472118	-0.066262	0.022240	0.454277
